<svg width="445" height="166" viewBox="0 0 445 166" fill="none" xmlns="http://www.w3.org/2000/svg">
<path fill-rule="evenodd" clip-rule="evenodd" d="M30.5 2.5C30.5858 3.4959 30.2524 4.3292 29.5 5C22.5 5.3333 15.5 5.6667 8.49999 6C7.66669 6.8333 6.83329 7.6667 5.99999 8.5C5.49999 32.4977 5.33339 56.4977 5.49999 80.5C13.1667 80.5 20.8333 80.5 28.5 80.5C27.5206 76.526 26.5206 72.526 25.5 68.5C28.1059 55.7022 35.4392 51.5355 47.5 56C53.4666 60.4314 55.6332 66.2647 54 73.5C52.5886 75.65 51.7553 77.984 51.5 80.5C59.5 80.5 67.5 80.5 75.5 80.5C75.187 76.958 75.521 73.625 76.5 70.5C77.5 70.5 78.5 70.5 79.5 70.5C79.5 73.833 79.5 77.167 79.5 80.5C88.608 80.057 97.608 80.557 106.5 82C107.116 83.4 107.449 84.9 107.5 86.5C105.793 91.363 105.293 96.363 106 101.5C109.892 107.957 115.058 109.124 121.5 105C124.18 101.577 125.013 97.744 124 93.5C120.737 89.017 120.904 84.851 124.5 81C132.827 80.5 141.16 80.334 149.5 80.5C149.667 56.4977 149.5 32.4977 149 8.5C148.167 7.6667 147.333 6.8333 146.5 6C124.169 5.5 101.836 5.3334 79.5 5.5C79.5 13.8333 79.5 22.1667 79.5 30.5C96.816 23.979 104.983 29.979 104 48.5C101.629 54.7044 97.129 58.0378 90.5 58.5C86.704 57.6743 83.037 56.6743 79.5 55.5C79.663 57.8568 79.497 60.1902 79 62.5C78.617 63.056 78.117 63.3893 77.5 63.5C76.883 63.3893 76.383 63.056 76 62.5C75.833 60.8333 75.667 59.1667 75.5 57.5C75.288 54.9886 75.955 52.8219 77.5 51C82.833 51.6667 88.167 52.3333 93.5 53C100.296 49.5782 102.129 44.4115 99 37.5C96.179 33.3371 92.345 31.8371 87.5 33C83.851 35.9096 80.185 36.0763 76.5 33.5C75.527 24.2203 75.193 14.887 75.5 5.5C62.8289 5.6666 50.1623 5.4999 37.5 5C36.7476 4.3292 36.4142 3.4959 36.5 2.5C36.6107 1.8826 36.944 1.3826 37.5 1C73.5 0.333302 109.5 0.333302 145.5 1C149.896 1.7297 152.73 4.2297 154 8.5C154.667 50.1667 154.667 91.833 154 133.5C153.617 134.056 153.117 134.389 152.5 134.5C151.504 134.586 150.671 134.252 150 133.5C149.5 117.503 149.333 101.503 149.5 85.5C141.833 85.5 134.167 85.5 126.5 85.5C126.231 87.429 126.731 89.095 128 90.5C130.848 102.832 126.182 110.165 114 112.5C105.542 110.62 101.042 105.287 100.5 96.5C101.214 92.744 102.214 89.077 103.5 85.5C95.5 85.5 87.5 85.5 79.5 85.5C79.807 94.887 79.473 104.22 78.5 113.5C74.815 116.076 71.149 115.91 67.5 113C64.854 112.503 62.1873 112.336 59.5 112.5C58.7415 108.76 60.2415 107.093 64 107.5C67.986 108.223 71.819 109.223 75.5 110.5C75.5 102.167 75.5 93.833 75.5 85.5C66.8269 85.666 58.1603 85.5 49.5 85C45.6833 81.385 45.5167 77.552 49 73.5C51.1584 63.0002 46.9918 58.1669 36.5 59C30.9752 61.9188 29.1419 66.4188 31 72.5C34.487 76.878 34.3203 81.045 30.5 85C23.8417 85.5 17.175 85.666 10.5 85.5C8.83329 85.5 7.16669 85.5 5.49999 85.5C5.33339 109.502 5.49999 133.502 5.99999 157.5C6.83329 158.333 7.66669 159.167 8.49999 160C30.8308 160.5 53.1642 160.667 75.5 160.5C75.826 151.983 75.493 143.65 74.5 135.5C57.6627 141.51 49.8294 135.51 51 117.5C52.0113 116.663 53.1779 116.33 54.5 116.5C54.689 119.624 54.8557 122.957 55 126.5C56.9129 130.585 60.0795 132.918 64.5 133.5C67.756 132.613 70.923 131.613 74 130.5C77.133 130.142 78.967 131.475 79.5 134.5C79.5 143.167 79.5 151.833 79.5 160.5C101.836 160.667 124.169 160.5 146.5 160C148.141 158.871 149.141 157.371 149.5 155.5C149.334 151.154 149.501 146.821 150 142.5C151.011 141.663 152.178 141.33 153.5 141.5C154.878 147.405 154.712 153.405 153 159.5C151.52 162.663 149.02 164.496 145.5 165C99.833 165.667 54.1667 165.667 8.49999 165C4.50209 163.514 2.00209 160.68 0.999995 156.5C0.333295 107.167 0.333295 57.8333 0.999995 8.5C2.28109 4.763 4.78109 2.263 8.49999 1C15.5 0.333302 22.5 0.333302 29.5 1C30.056 1.3826 30.3893 1.8826 30.5 2.5Z" fill="#0E1112"/>
<path fill-rule="evenodd" clip-rule="evenodd" d="M30.5 2.5C32.5 2.5 34.5 2.5 36.5 2.5C36.4142 3.4959 36.7476 4.3292 37.5 5C50.1623 5.4999 62.8289 5.6666 75.5 5.5C75.193 14.887 75.527 24.2203 76.5 33.5C80.185 36.0763 83.851 35.9096 87.5 33C92.345 31.8371 96.179 33.3371 99 37.5C102.129 44.4115 100.296 49.5782 93.5 53C88.167 52.3333 82.833 51.6667 77.5 51C75.955 52.8219 75.288 54.9886 75.5 57.5C75.667 59.1667 75.833 60.8333 76 62.5C76.383 63.056 76.883 63.3893 77.5 63.5C77.702 65.9496 77.369 68.283 76.5 70.5C75.521 73.625 75.187 76.958 75.5 80.5C67.5 80.5 59.5 80.5 51.5 80.5C51.7553 77.984 52.5886 75.65 54 73.5C55.6332 66.2647 53.4666 60.4314 47.5 56C35.4392 51.5355 28.1059 55.7022 25.5 68.5C26.5206 72.526 27.5206 76.526 28.5 80.5C20.8333 80.5 13.1667 80.5 5.5 80.5C5.3334 56.4977 5.5 32.4977 6 8.5C6.8333 7.6667 7.6667 6.8333 8.5 6C15.5 5.6667 22.5 5.3333 29.5 5C30.2524 4.3292 30.5858 3.4959 30.5 2.5Z" fill="#8BF2FF"/>
<path fill-rule="evenodd" clip-rule="evenodd" d="M76.5 70.5C77.369 68.283 77.702 65.9496 77.5 63.5C78.117 63.3893 78.617 63.056 79 62.5C79.497 60.1902 79.663 57.8568 79.5 55.5C83.037 56.6743 86.704 57.6743 90.5 58.5C97.129 58.0378 101.629 54.7044 104 48.5C104.983 29.979 96.816 23.979 79.5 30.5C79.5 22.1667 79.5 13.8333 79.5 5.5C101.836 5.3334 124.169 5.5 146.5 6C147.333 6.8333 148.167 7.6667 149 8.5C149.5 32.4977 149.667 56.4977 149.5 80.5C141.16 80.334 132.827 80.5 124.5 81C120.904 84.851 120.737 89.017 124 93.5C125.013 97.744 124.18 101.577 121.5 105C115.058 109.124 109.892 107.957 106 101.5C105.293 96.363 105.793 91.363 107.5 86.5C107.449 84.9 107.116 83.4 106.5 82C97.608 80.557 88.608 80.057 79.5 80.5C79.5 77.167 79.5 73.833 79.5 70.5C78.5 70.5 77.5 70.5 76.5 70.5Z" fill="#FFA34F"/>
<path fill-rule="evenodd" clip-rule="evenodd" d="M25.5 14.5C26.8221 14.33 27.9887 14.6634 29 15.5C30.0823 21.5809 31.4157 27.5809 33 33.5C34.5244 27.4018 36.3577 21.4018 38.5 15.5C39.6507 14.269 40.8173 14.269 42 15.5C43.8345 21.506 45.6678 27.506 47.5 33.5C48.8805 27.8854 50.0472 22.2187 51 16.5C52.0793 14.6063 53.4126 14.273 55 15.5C54.1895 25.4995 52.3562 35.3328 49.5 45C48.2161 45.6838 47.0495 45.5171 46 44.5C44.2989 38.3461 42.2989 32.3461 40 26.5C38 32.5 36 38.5 34 44.5C32.8173 45.731 31.6507 45.731 30.5 44.5C27.9025 34.65 26.2358 24.65 25.5 14.5Z" fill="#0D1011"/>
<path fill-rule="evenodd" clip-rule="evenodd" d="M123.5 27.5C139.728 29.2928 144.561 37.6261 138 52.5C129.992 60.779 122.325 60.4456 115 51.5C110.228 40.7254 113.061 32.7254 123.5 27.5Z" fill="#0C1010"/>
<path fill-rule="evenodd" clip-rule="evenodd" d="M123.5 32.5C133.428 32.0235 137.595 36.6902 136 46.5C133.596 51.9528 129.429 54.1195 123.5 53C117.891 49.7231 116.058 44.8897 118 38.5C119.36 35.9774 121.193 33.9774 123.5 32.5Z" fill="#FFA34F"/>
<path fill-rule="evenodd" clip-rule="evenodd" d="M59.5 112.5C56.6333 112.369 54.9666 113.703 54.5 116.5C53.1779 116.33 52.0113 116.663 51 117.5C49.8294 135.51 57.6627 141.51 74.5 135.5C74.5 142.167 74.5 148.833 74.5 155.5C54.4972 155.667 34.4972 155.5 14.5 155C13.5 154.167 12.5 153.333 11.5 152.5C10.5108 130.212 10.1775 107.879 10.5 85.5C17.175 85.666 23.8417 85.5 30.5 85C34.3203 81.045 34.487 76.878 31 72.5C29.1419 66.4188 30.9752 61.9188 36.5 59C46.9918 58.1669 51.1584 63.0002 49 73.5C45.5167 77.552 45.6833 81.385 49.5 85C58.1603 85.5 66.8269 85.666 75.5 85.5C75.5 93.833 75.5 102.167 75.5 110.5C71.819 109.223 67.986 108.223 64 107.5C60.2415 107.093 58.7415 108.76 59.5 112.5Z" fill="#C4FFAF"/>
<path fill-rule="evenodd" clip-rule="evenodd" d="M10.5 85.5C10.1775 107.879 10.5108 130.212 11.5 152.5C12.5 153.333 13.5 154.167 14.5 155C34.4972 155.5 54.4972 155.667 74.5 155.5C74.5 148.833 74.5 142.167 74.5 135.5C75.493 143.65 75.826 151.983 75.5 160.5C53.1642 160.667 30.8308 160.5 8.5 160C7.6667 159.167 6.8333 158.333 6 157.5C5.5 133.502 5.3334 109.502 5.5 85.5C7.1667 85.5 8.8333 85.5 10.5 85.5Z" fill="#C4FFAF"/>
<path fill-rule="evenodd" clip-rule="evenodd" d="M152.5 134.5C152.298 136.95 152.631 139.283 153.5 141.5C152.178 141.33 151.011 141.663 150 142.5C149.501 146.821 149.334 151.154 149.5 155.5C126.5 155.5 103.5 155.5 80.5 155.5C80.825 148.313 80.491 141.313 79.5 134.5C78.967 131.475 77.133 130.142 74 130.5C70.923 131.613 67.756 132.613 64.5 133.5C60.0795 132.918 56.9129 130.585 55 126.5C54.8557 122.957 54.689 119.624 54.5 116.5C54.9666 113.703 56.6333 112.369 59.5 112.5C62.1873 112.336 64.854 112.503 67.5 113C71.149 115.91 74.815 116.076 78.5 113.5C79.473 104.22 79.807 94.887 79.5 85.5C87.5 85.5 95.5 85.5 103.5 85.5C102.214 89.077 101.214 92.744 100.5 96.5C101.042 105.287 105.542 110.62 114 112.5C126.182 110.165 130.848 102.832 128 90.5C126.731 89.095 126.231 87.429 126.5 85.5C134.167 85.5 141.833 85.5 149.5 85.5C149.333 101.503 149.5 117.503 150 133.5C150.671 134.252 151.504 134.586 152.5 134.5Z" fill="#C99FFF"/>
<path fill-rule="evenodd" clip-rule="evenodd" d="M19.5 107.5C35.6501 106.154 42.1501 113.488 39 129.5C34.7235 137.967 28.0568 140.634 19 137.5C18.1934 127.423 18.36 117.423 19.5 107.5Z" fill="#0E1213"/>
<path fill-rule="evenodd" clip-rule="evenodd" d="M23.5 112.5C31.4505 111.138 35.4505 114.471 35.5 122.5C35.2759 130.394 31.2759 134.06 23.5 133.5C23.5 126.5 23.5 119.5 23.5 112.5Z" fill="#C4FFAF"/>
<path fill-rule="evenodd" clip-rule="evenodd" d="M107.5 120.5C110.85 120.335 114.183 120.502 117.5 121C123.957 124.892 125.124 130.058 121 136.5C119.581 137.46 118.081 138.293 116.5 139C118.667 141.833 120.833 144.667 123 147.5C123.783 149.319 123.283 150.652 121.5 151.5C117.774 147.728 114.274 143.728 111 139.5C110.667 143.167 110.333 146.833 110 150.5C109 151.833 108 151.833 107 150.5C106.193 140.423 106.36 130.423 107.5 120.5Z" fill="#080A0A"/>
<path fill-rule="evenodd" clip-rule="evenodd" d="M110.5 125.5C114.881 124.534 117.881 126.034 119.5 130C117.833 133.965 114.833 135.465 110.5 134.5C110.5 131.5 110.5 128.5 110.5 125.5Z" fill="#C99FFF"/>
<path fill-rule="evenodd" clip-rule="evenodd" d="M79.5 134.5C80.491 141.313 80.825 148.313 80.5 155.5C103.5 155.5 126.5 155.5 149.5 155.5C149.141 157.371 148.141 158.871 146.5 160C124.169 160.5 101.836 160.667 79.5 160.5C79.5 151.833 79.5 143.167 79.5 134.5Z" fill="#C99FFF"/>
<path opacity="0.7" d="M211.68 47.8C213.547 50.9467 215.413 53.7467 217.28 56.2C219.2 58.6 221.707 61.56 224.8 65.08C225.173 65.4533 225.36 65.88 225.36 66.36C225.36 67.1067 224.933 67.7467 224.08 68.28C223.28 68.8133 222.293 69.08 221.12 69.08C219.467 69.08 217.68 68.3867 215.76 67C214.053 65.7733 212.533 64.1467 211.2 62.12C209.867 60.0933 208.32 57.4533 206.56 54.2C205.173 51.6933 204.347 50.2267 204.08 49.8C202 50.6533 198.747 51.1867 194.32 51.4C194.32 53.2133 194.48 55.6667 194.8 58.76C195.12 61.96 195.28 64.28 195.28 65.72C195.28 66.68 194.8 67.48 193.84 68.12C192.933 68.76 191.893 69.08 190.72 69.08C189.333 69.08 188.267 68.52 187.52 67.4C186.773 65.9067 186.293 64.12 186.08 62.04C185.867 59.96 185.76 57.48 185.76 54.6C185.76 51.56 185.947 48.12 186.32 44.28C186.64 40.0133 186.8 36.8667 186.8 34.84C186.8 33.1867 186.64 30.9733 186.32 28.2C186.267 27.72 186.187 26.8933 186.08 25.72C185.973 24.5467 185.92 23.48 185.92 22.52C185.92 21.7733 186.187 21.1333 186.72 20.6C187.307 20.0133 187.92 19.6133 188.56 19.4C192.88 18.7067 197.093 18.36 201.2 18.36C208.187 18.36 213.973 19.6667 218.56 22.28C223.147 24.8933 225.44 28.8667 225.44 34.2C225.44 35.8533 225.067 37.4533 224.32 39C223.627 40.4933 222.667 41.7467 221.44 42.76C218.187 45.2667 214.933 46.9467 211.68 47.8ZM217.04 33.96C217.04 31.4 215.68 29.32 212.96 27.72C210.24 26.0667 206.373 25.24 201.36 25.24C199.12 25.24 196.907 25.5067 194.72 26.04L194.8 30.12C194.8 32.4667 194.72 34.76 194.56 37C194.4 39.24 194.32 41.64 194.32 44.2C195.227 43.9867 196.187 43.8533 197.2 43.8C198.213 43.6933 198.88 43.6133 199.2 43.56C201.547 43.3467 203.36 43.08 204.64 42.76C207.04 42.0133 209.013 41.3467 210.56 40.76C212.16 40.12 213.627 39.24 214.96 38.12C216.347 36.9467 217.04 35.56 217.04 33.96ZM277.961 55.24C277.961 57.7467 277.428 59.7733 276.361 61.32C275.295 62.8667 273.455 64.3867 270.841 65.88C269.081 66.9467 267.055 67.7733 264.761 68.36C262.468 68.8933 260.148 69.16 257.801 69.16C256.361 69.16 254.681 68.8933 252.761 68.36C250.895 67.7733 249.375 67.2133 248.201 66.68L246.841 65.48C244.441 63.5067 242.761 61.9333 241.801 60.76C240.895 59.5333 240.441 58.04 240.441 56.28C240.441 54.8933 240.761 53.8533 241.401 53.16C242.041 52.4667 243.081 52.12 244.521 52.12C245.268 52.12 245.961 52.36 246.601 52.84C247.241 53.32 247.801 53.9867 248.281 54.84C249.615 57.1867 251.188 58.92 253.001 60.04C254.868 61.1067 257.055 61.64 259.561 61.64C261.908 61.64 264.281 60.92 266.681 59.48C268.655 58.2533 269.641 57.0533 269.641 55.88C269.641 53.8 268.708 52.0667 266.841 50.68C265.028 49.2933 262.415 48.04 259.001 46.92C256.921 46.1733 253.801 44.7867 249.641 42.76C246.815 41.3733 244.708 39.6667 243.321 37.64C241.935 35.6133 241.241 33.48 241.241 31.24C241.241 29.2133 241.935 27.24 243.321 25.32C244.761 23.3467 246.495 21.88 248.521 20.92C249.588 20.3867 251.295 19.8267 253.641 19.24C255.988 18.6 257.748 18.28 258.921 18.28C261.108 18.28 263.001 18.5467 264.601 19.08C266.201 19.56 267.775 20.2533 269.321 21.16C271.668 22.4933 273.401 23.6933 274.521 24.76C275.641 25.8267 276.201 27.16 276.201 28.76C276.201 29.72 275.828 30.5733 275.081 31.32C274.388 32.0667 273.161 32.44 271.401 32.44C270.975 32.44 270.548 32.2533 270.121 31.88C269.695 31.5067 269.161 30.9467 268.521 30.2C267.668 29.08 266.841 28.3333 266.041 27.96C265.828 27.9067 264.948 27.56 263.401 26.92C261.908 26.28 260.041 25.96 257.801 25.96C255.668 25.96 253.775 26.4667 252.121 27.48C250.468 28.44 249.641 29.8533 249.641 31.72C249.641 33.5867 251.321 35.1067 254.681 36.28C258.255 37.6667 261.215 38.8667 263.561 39.88C265.961 40.8933 268.281 42.0933 270.521 43.48C273.081 45.0267 274.948 46.6533 276.121 48.36C277.348 50.0667 277.961 52.36 277.961 55.24ZM330.883 54.52C330.883 57.0267 330.296 59.1867 329.123 61C328.003 62.76 326.136 64.3867 323.523 65.88C321.763 66.9467 319.71 67.7467 317.363 68.28C315.016 68.8133 312.643 69.08 310.243 69.08C307.79 69.08 304.75 68.28 301.123 66.68C298.51 65.4 296.43 63.88 294.883 62.12C293.39 60.36 292.643 58.44 292.643 56.36C292.643 54.92 292.963 53.88 293.603 53.24C294.243 52.5467 295.283 52.2 296.723 52.2C297.47 52.2 298.243 52.52 299.043 53.16C299.843 53.7467 300.323 54.3333 300.483 54.92C301.23 57.1067 302.536 58.7867 304.403 59.96C306.27 61.08 308.59 61.64 311.363 61.64C314.563 61.64 317.23 61.0533 319.363 59.88C321.55 58.7067 322.643 57.1333 322.643 55.16C322.643 53.24 321.47 51.5333 319.123 50.04C316.776 48.5467 314.376 47.5067 311.923 46.92C308.403 45.96 305.283 44.8133 302.563 43.48C299.736 42.0933 297.63 40.3867 296.243 38.36C294.856 36.3333 294.163 34.2 294.163 31.96C294.163 29.88 294.883 27.7733 296.323 25.64C297.763 23.4533 299.47 21.88 301.443 20.92C302.51 20.3867 304.323 19.8267 306.883 19.24C309.496 18.6 311.39 18.28 312.563 18.28C314.056 18.28 315.63 18.4667 317.283 18.84C318.936 19.2133 320.35 19.7467 321.523 20.44C323.87 21.7733 325.603 22.9733 326.723 24.04C327.843 25.1067 328.403 26.44 328.403 28.04C328.403 29 328.03 29.8533 327.283 30.6C326.59 31.3467 325.363 31.72 323.603 31.72C323.176 31.72 322.75 31.5333 322.323 31.16C321.896 30.7867 321.363 30.2267 320.723 29.48C319.87 28.36 319.043 27.6133 318.243 27.24C317.39 26.92 316.323 26.6267 315.043 26.36C313.763 26.04 312.563 25.88 311.443 25.88C310.163 25.88 308.83 26.1467 307.443 26.68C306.056 27.2133 304.883 27.9867 303.923 29C303.016 29.96 302.563 31.08 302.563 32.36C302.563 33.4267 303.043 34.36 304.003 35.16C305.016 35.9067 306.216 36.52 307.603 37C309.203 37.64 310.936 38.2 312.803 38.68C315.256 39.4267 317.256 40.12 318.803 40.76C320.403 41.3467 321.95 42.0933 323.443 43C326.056 44.5467 327.95 46.1467 329.123 47.8C330.296 49.4 330.883 51.64 330.883 54.52ZM205.52 120.92C203.44 120.92 201.68 120.867 200.24 120.76C198.853 120.6 197.013 120.36 194.72 120.04L194.64 128.44C194.587 129.88 194.56 131.933 194.56 134.6C194.56 135.987 194.16 137.08 193.36 137.88C192.613 138.627 191.76 139 190.8 139C189.04 139 187.733 138.787 186.88 138.36C186.027 137.88 185.6 137.053 185.6 135.88C185.6 134.333 185.733 132.147 186 129.32C186.587 123.24 186.88 117 186.88 110.6C186.88 104.627 186.693 99 186.32 93.72C186.373 92.9733 186.747 92.12 187.44 91.16C188.187 90.2 189.12 89.6667 190.24 89.56C191.467 89.56 193.413 89.3467 196.08 88.92C198.853 88.4933 200.96 88.28 202.4 88.28C206.773 88.28 210.16 88.7067 212.56 89.56C215.013 90.4133 217.467 91.8267 219.92 93.8C222.587 97.96 223.92 100.893 223.92 102.6C223.92 106.173 223.2 109.347 221.76 112.12C220.32 114.893 218.213 117.053 215.44 118.6C212.667 120.147 209.36 120.92 205.52 120.92ZM203.68 95.08C201.973 95.08 200.48 95.1867 199.2 95.4C197.973 95.56 196.48 95.8533 194.72 96.28C194.933 101.187 195.04 104.76 195.04 107C195.04 109.293 194.96 111.213 194.8 112.76C197.093 113.24 198.907 113.56 200.24 113.72C201.573 113.827 203.067 113.88 204.72 113.88C208.667 113.88 211.44 112.867 213.04 110.84C214.693 108.76 215.52 106.36 215.52 103.64C215.52 102.84 215.28 101.853 214.8 100.68C214.32 99.5067 213.893 98.7333 213.52 98.36C212.08 97.08 210.667 96.2267 209.28 95.8C207.947 95.32 206.08 95.08 203.68 95.08ZM236.423 112.04C235.996 112.04 235.596 111.88 235.223 111.56C234.903 111.187 234.743 110.76 234.743 110.28C234.743 109.053 235.276 107.907 236.343 106.84C236.663 106.68 237.303 106.413 238.263 106.04C239.223 105.667 240.076 105.48 240.823 105.48C242.85 105.48 244.503 106.04 245.783 107.16C247.063 108.227 247.703 109.773 247.703 111.8C247.703 112.387 247.596 113.64 247.383 115.56C247.17 117.8 247.063 119.533 247.063 120.76C247.063 124.493 247.57 127.507 248.583 129.8C248.956 130.547 249.543 131.133 250.343 131.56C251.143 131.987 251.863 132.2 252.503 132.2C254.05 132.2 255.303 131.933 256.263 131.4C257.223 130.867 258.263 130.013 259.383 128.84C260.503 127.667 261.223 126.333 261.543 124.84C261.916 123.347 262.183 121.293 262.343 118.68C262.45 116.973 262.556 115.72 262.663 114.92C262.93 112.36 263.063 110.173 263.063 108.36C263.063 107.187 263.383 106.227 264.023 105.48C264.663 104.68 265.543 104.28 266.663 104.28C267.303 104.28 268.023 104.493 268.823 104.92C269.676 105.293 270.236 105.747 270.503 106.28C270.823 106.813 270.983 107.693 270.983 108.92C270.983 109.56 270.903 110.173 270.743 110.76C270.37 112.093 270.183 113.693 270.183 115.56L270.263 119.72C270.263 123.507 270.53 126.307 271.063 128.12C271.33 128.973 271.703 129.853 272.183 130.76C272.663 131.613 273.116 132.333 273.543 132.92C274.61 134.093 275.303 134.92 275.623 135.4C275.943 135.827 276.103 136.253 276.103 136.68C276.103 137.32 275.783 137.933 275.143 138.52C274.556 139.053 273.916 139.32 273.223 139.32C271.25 139.32 269.543 138.653 268.103 137.32C266.663 135.987 265.596 134.253 264.903 132.12C263.09 134.2 261.41 135.88 259.863 137.16C258.796 137.907 257.49 138.467 255.943 138.84C254.396 139.16 252.85 139.32 251.303 139.32C249.223 139.32 247.116 138.467 244.983 136.76C242.85 135.053 241.41 133.08 240.663 130.84C240.61 130.733 240.45 130.307 240.183 129.56C239.97 128.813 239.863 127.693 239.863 126.2C239.863 124.227 239.97 121.747 240.183 118.76C240.343 116.84 240.423 115.08 240.423 113.48C240.423 113 240.236 112.6 239.863 112.28C239.543 111.96 239.17 111.8 238.743 111.8C238.423 111.8 238.05 111.853 237.623 111.96C237.25 112.013 236.85 112.04 236.423 112.04ZM317.842 111.64C316.722 113.56 315.202 115.533 313.282 117.56C311.362 119.587 308.909 121.987 305.922 124.76C303.095 127.427 301.522 128.947 301.202 129.32L298.482 131.8C299.549 132.013 301.549 132.12 304.482 132.12C305.655 132.12 307.362 131.907 309.602 131.48C311.735 131.053 313.309 130.84 314.322 130.84C315.175 130.84 316.135 130.973 317.202 131.24C318.322 131.507 319.362 131.907 320.322 132.44C320.802 132.653 321.202 133.08 321.522 133.72C321.842 134.307 322.002 134.867 322.002 135.4C322.002 136.093 321.762 136.867 321.282 137.72C320.802 138.573 320.242 139 319.602 139C319.015 139 318.242 138.893 317.282 138.68C315.842 138.413 314.829 138.28 314.242 138.28C312.375 138.28 309.895 138.413 306.802 138.68C302.535 139 299.389 139.16 297.362 139.16C294.802 139.16 292.775 138.84 291.282 138.2C289.842 137.56 289.122 136.36 289.122 134.6C289.122 133.267 289.789 131.747 291.122 130.04C292.455 128.28 294.082 126.44 296.002 124.52L297.122 123.32C297.975 122.467 299.415 121.187 301.442 119.48C303.469 117.72 305.015 116.333 306.082 115.32C307.149 114.253 308.029 113.133 308.722 111.96L295.922 112.04C293.842 112.04 292.295 111.8 291.282 111.32C290.322 110.84 289.842 109.933 289.842 108.6C289.842 107.853 290.109 107.16 290.642 106.52C291.175 105.827 291.869 105.4 292.722 105.24C294.642 104.973 298.562 104.84 304.482 104.84C310.402 104.84 314.482 105.133 316.722 105.72C317.309 105.933 317.762 106.333 318.082 106.92C318.455 107.453 318.642 108.013 318.642 108.6C318.642 109.56 318.375 110.573 317.842 111.64ZM362.951 111.64C361.085 114.893 358.071 118.493 353.911 122.44L352.551 123.72C349.191 126.973 345.965 129.773 342.871 132.12C343.245 132.173 343.991 132.2 345.111 132.2L349.591 132.12C350.765 132.12 352.471 131.907 354.711 131.48C356.845 131.053 358.418 130.84 359.431 130.84C360.978 130.84 362.738 131.373 364.711 132.44C365.191 132.653 365.591 133.08 365.911 133.72C366.231 134.307 366.391 134.867 366.391 135.4C366.391 136.093 366.151 136.867 365.671 137.72C365.191 138.573 364.631 139 363.991 139C363.405 139 362.738 138.893 361.991 138.68C361.885 138.627 361.565 138.547 361.031 138.44C360.551 138.333 359.991 138.28 359.351 138.28C357.485 138.28 355.005 138.413 351.911 138.68C347.645 139 344.498 139.16 342.471 139.16C339.911 139.16 337.885 138.84 336.391 138.2C334.951 137.56 334.231 136.36 334.231 134.6C334.231 132.893 334.738 131.373 335.751 130.04C336.818 128.707 338.285 127.213 340.151 125.56C340.951 124.92 341.645 124.307 342.231 123.72C343.351 122.6 344.765 121.32 346.471 119.88C348.338 118.28 349.885 116.867 351.111 115.64C352.391 114.36 353.378 113.133 354.071 111.96C353.645 111.96 353.138 111.987 352.551 112.04C352.018 112.093 351.458 112.147 350.871 112.2C349.058 112.413 347.965 112.52 347.591 112.52C345.405 112.52 343.031 112.36 340.471 112.04C338.285 111.827 336.818 111.533 336.071 111.16C335.325 110.733 334.951 109.88 334.951 108.6C334.951 107.853 335.218 107.16 335.751 106.52C336.285 105.827 336.978 105.4 337.831 105.24C338.045 105.187 338.471 105.16 339.111 105.16C339.858 105.16 341.458 105.267 343.911 105.48C346.471 105.693 348.365 105.8 349.591 105.8C350.338 105.8 351.725 105.747 353.751 105.64C355.351 105.48 356.951 105.4 358.551 105.4C359.938 105.4 361.031 105.507 361.831 105.72C362.418 105.933 362.871 106.333 363.191 106.92C363.565 107.453 363.751 108.013 363.751 108.6C363.751 109.56 363.485 110.573 362.951 111.64ZM388.638 126.6C388.638 128.627 388.931 130.2 389.518 131.32C390.158 132.387 390.958 132.92 391.918 132.92C392.451 132.92 392.958 132.893 393.438 132.84C393.918 132.733 394.398 132.68 394.878 132.68C395.411 132.68 395.864 132.947 396.238 133.48C396.664 134.013 396.878 134.6 396.878 135.24C396.878 136.52 396.264 137.533 395.038 138.28C393.864 138.973 392.264 139.32 390.238 139.32C388.798 139.32 387.331 138.893 385.838 138.04C384.398 137.133 383.198 135.747 382.238 133.88C381.278 131.96 380.798 129.587 380.798 126.76C380.798 120.68 380.904 115.533 381.118 111.32C381.384 106.307 381.518 99.9867 381.518 92.36C381.518 89.96 381.651 88.28 381.918 87.32C382.238 86.5733 382.744 86.0133 383.438 85.64C384.184 85.2133 384.958 85 385.758 85C386.558 85 387.251 85.1333 387.838 85.4C388.478 85.6667 388.904 86.0933 389.118 86.68C389.331 87.32 389.464 87.96 389.518 88.6C389.624 89.1867 389.678 90.04 389.678 91.16C389.678 93.3467 389.598 95.4533 389.438 97.48C389.331 99.9333 389.278 101.72 389.278 102.84C388.851 112.227 388.638 120.147 388.638 126.6ZM409.534 120.68C409.534 117.427 410.254 114.733 411.694 112.6C413.134 110.413 415.134 108.36 417.694 106.44C418.44 105.907 419.694 105.453 421.454 105.08C423.214 104.653 424.76 104.44 426.094 104.44C427.694 104.44 429.374 104.787 431.134 105.48C432.947 106.12 434.414 106.867 435.534 107.72C437.507 109.16 438.867 110.84 439.614 112.76C440.36 114.627 440.734 116.867 440.734 119.48C440.734 120.6 440.094 121.693 438.814 122.76C437.587 123.773 436.254 124.28 434.814 124.28L431.774 124.2C430.227 124.2 428.014 124.253 425.134 124.36L423.454 124.44C422.28 124.547 421.4 124.6 420.814 124.6C419.96 124.6 418.787 124.493 417.294 124.28C417.507 126.787 418.44 128.76 420.094 130.2C421.747 131.587 423.534 132.28 425.454 132.28C428.814 132.28 431.16 131.613 432.494 130.28C433.614 129.48 434.36 128.973 434.734 128.76C435.107 128.547 435.694 128.44 436.494 128.44C437.347 128.44 438.094 128.84 438.734 129.64C439.374 130.44 439.694 131.24 439.694 132.04C439.694 132.947 439.134 133.88 438.014 134.84C436.947 135.747 435.48 136.707 433.614 137.72C432.6 138.147 431.214 138.52 429.454 138.84C427.694 139.16 426.227 139.32 425.054 139.32C423.187 139.32 421.107 138.787 418.814 137.72C416.52 136.6 414.814 135.373 413.694 134.04C412.574 132.707 411.587 130.813 410.734 128.36C409.934 125.907 409.534 123.347 409.534 120.68ZM425.454 118.52C429.24 118.52 432.014 118.387 433.774 118.12C433.667 116.573 433.187 115.32 432.334 114.36C431.48 113.347 430.307 112.493 428.814 111.8C428.334 111.587 427.907 111.427 427.534 111.32C427.16 111.213 426.734 111.16 426.254 111.16C423.8 111.16 421.72 111.827 420.014 113.16C418.36 114.493 417.374 116.2 417.054 118.28C419.72 118.44 422.52 118.52 425.454 118.52Z" fill="black"/>
</svg>
